<?xml version="1.0" encoding="utf-8"?>
<!-- Generator: Adobe Illustrator 24.1.2, SVG Export Plug-In . SVG Version: 6.00 Build 0)  -->
<svg version="1.1" id="Слой_1" xmlns="http://www.w3.org/2000/svg" xmlns:xlink="http://www.w3.org/1999/xlink" x="0px" y="0px"
	 viewBox="0 0 595.3 841.9" style="enable-background:new 0 0 595.3 841.9;" xml:space="preserve">
<style type="text/css">
	.st0{fill:#0593BA;}
	.st1{fill:#89603A;}
	.st2{fill:#D1EDF7;}
	.st3{fill:#5A3D22;}
	.st4{fill:#0C7B99;}
	.st5{fill:#E3B98A;}
	.st6{fill:#1F2829;}
	.st7{fill:#DD9132;}
</style>
<g>
	<path class="st0" d="M375.2,489.6c10.2-3.1,20.6-5.1,31.3-4.6c4.5,0.2,9,1.4,13.5,2.1c-5.7,1.1-11.4,2.4-17.1,3.2
		C393.6,491.5,384.4,490.8,375.2,489.6z"/>
	<path class="st0" d="M321.1,249.2c9.6-4.7,19.2-9.3,28.7-14.1c6.4-3.2,12.7-6.7,19.1-10.1c4.2-2.2,7.7-5.3,10.8-8.8
		c0.4-0.5,0.5-1.2,0.8-1.8c-0.5-0.2-1.1-0.5-1.6-0.6c-7.7-0.7-14.1-4.3-19.4-9.5c-6.2-6.1-7.6-13.6-4.4-21.6
		c4.6-11.7,15.3-20.8,28.9-20.4c19.1,0.6,31.1,14.1,29.2,33.5c-0.7,6.9-2,13.8-5.4,19.9c-3.1,5.6-7,10.8-10.6,16.1
		c-0.7,1.1-1.7,2-2.3,3.2c-0.3,0.7-0.1,1.7-0.2,2.5c0.8-0.3,1.9-0.3,2.5-0.8c1.2-1,2.1-2.2,3.2-3.3c0.6-0.6,1.3-1.2,2-1.4
		c0.6-0.2,1.7-0.2,2.1,0.2c0.4,0.5,0.5,1.6,0.2,2.2c-0.6,1.3-1.6,2.4-2.5,3.6c-0.5,0.7-1.1,1.4-1.8,2.4c1.1,0.6,1.9,1.4,2.9,1.6
		c0.7,0.2,1.8-0.1,2.2-0.6c1.5-1.9,2.6-4,4.1-5.8c1.4-1.8,3.6-0.5,3.1,1.6c-0.7,2.6-2.9,5.2-4.2,7.5c1.1,0.6,2.1,1.1,3.1,1.6
		c1.3,0.6,2.2,0.2,3.1-1c1.4-2,2.9-4,4.4-5.9c0.6-0.8,2.9-5,4.3-3.4c0.6,0.8-0.5,2.7-0.9,3.4c-1.3,2.7-2.7,5.3-4.2,7.9
		c-0.8,1.3-0.5,2.1,0.9,2.7c3.8,1.7,7.5,3.5,11.2,5.3c1.6,0.8,2.4,0.3,3.3-1.2c1.7-2.8,3.4-5.6,5.2-8.4c0.7-1.1,3.6-7.4,5.4-5.1
		c1.3,1.7-1.2,5.2-2,6.9c-1.3,2.9-2.7,5.7-4.1,8.6c-0.9,1.8-0.6,2.7,1.2,3.6c3.7,1.7,7.3,3.5,10.9,5.4c1.4,0.7,2.2,0.4,3.1-0.8
		c2.3-3.2,4.7-6.4,7.1-9.6c0.6-0.8,1.5-1.9,2.6-1.2c1.4,0.9,0,2.4-0.5,3.4c-1.5,3-3.1,6.1-4.8,9c-1,1.8-0.7,2.8,1.1,3.6
		c1.9,0.9,3.8,2,6,3.2c0.8-1.8,1.5-3.5,2.2-5.1c0.4-0.9,1.1-2.5,2.1-3c1.8-0.9,2.3,1.5,1.9,2.8c-0.5,1.9-1.3,3.8-2.1,5.6
		c-1,2,0.5,2.4,1.8,2.9c1.3,0.6,2.5,1.2,3.3-0.8c2-5,3.7-10.2,6.3-14.8c6.3-10.8,14.4-19.9,26.8-23.8c12.6-4,26.8,2.3,33.3,13.9
		c7.2,12.7,3.4,28.6-4.9,36.8c-5.7,5.7-12.7,7.2-20.4,4.6c-6.5-2.1-12.4-5.3-16.5-11c-0.2-0.2-0.4-0.5-0.7-0.6
		c-0.2-0.1-0.4-0.2-1.2-0.5c-0.7,3.1-1.9,6.2-1.9,9.1c0.2,9.7,0.7,19.4,1.5,29.1c0.9,10.6,2.4,21.2,3.4,31.7
		c0.6,5.4,0.9,10.8,1.2,16.3c0.1,1.5,0,3.1-0.1,4.6c-0.3,3.1,0.9,4.1,4,3.1c2.4-0.8,4.7-1.8,7.2-2.4c8.3-2.1,16.7-1.7,25.1,0.1
		c10.9,2.3,20.9,6.8,29.7,13.4c17.8,13.3,29.9,30.6,34.5,52.6c1,4.8,0.9,9.6-0.6,14.3c-2.7,8.1-10.8,11-19.5,7.2
		c-7.1-3.1-13.3-7.6-19-12.7c-0.3-0.3-0.7-0.6-1.1-0.9c-0.1-0.1-0.3-0.1-0.7-0.2c-0.2,0.5-0.6,1.1-0.7,1.7
		c-3.1,12.3-13.9,16.8-24.8,10.3c-6.6-3.9-11.2-9.6-15-16.1c-1.1-2-2.2-4-3.2-6.1c-0.6-1.3-1.2-1.4-2.5-0.8c-5.9,3.2-12.1,2-16.7-3
		c-1.6-1.8-3-3.9-4.5-5.8c-0.4-0.5-0.8-1-1.5-1.8c-0.5,0.8-1,1.3-1.2,1.9c-4.1,9.5-9,18.4-15,26.8c-4.5,6.3-10.2,11.2-16.1,15.9
		c-4.7,3.8-9.8,7.1-14.7,10.6c-15-7.4-30.8-10.7-47.4-9.4c-12,0.9-23.9,2.5-35.7,4.4c-8.7,1.4-17.1,4-25.7,6.1
		c-2.2-0.9-4.3-1.8-6.5-2.8c-0.6-1.8-1-3.6-1.7-5.4c-1.2-2.9-2.5-5.7-3.8-8.5c3.5-1.6,7.1-3,10.4-4.9c7.9-4.6,15.8-9.4,23.6-14.1
		c0.6,0.7,1,1.7,1.7,2c2.2,0.9,4.5,1.4,6.8,2.2c1.5,0.5,2.3,0.1,3.1-1.3c3-5.5,6.3-10.9,9.3-16.4c8-14.4,15.9-28.8,23.8-43.3
		c1.2-2,2.4-4.1,3.5-6.1c5-8.9,10.1-17.7,14.9-26.7c12.7-23.7,25.4-47.4,38-71.1c0.3-0.5,0.5-1.1,0.8-1.9c-2.2-1-4.3-1.9-6.3-3
		c-1.9-1.1-2.8-0.4-3.8,1.3c-11.5,21-22.9,41.9-34.5,62.9c-3.5,6.3-7,12.6-10.5,18.9c-0.1-3.8-0.9-7.4-3.4-10.4
		c14.5-24.7,29-49.4,43.5-74.1c1.1-1.8,0.7-2.7-1.1-3.5c-3.1-1.5-6.2-3-9.2-4.7c-1.9-1.1-2.9-0.7-3.9,1.2c-9.4,18-19,35.9-28.5,53.8
		c-3.2,6.1-6.7,12.1-10,18.1c-1.7-2.1-3.5-4.2-5.2-6.3c0.2-0.2,0.4-0.5,0.5-0.7c7.6-13.2,15.2-26.4,22.7-39.7
		c5.3-9.4,10.5-18.9,15.9-28.2c1-1.7,0.8-2.7-1.1-3.6c-3.5-1.7-7-3.5-10.4-5.5c-2-1.2-3-0.8-4.1,1.2c-4.4,7.5-8.9,15-13.4,22.5
		c-6.8,11.3-13.5,22.6-20.3,33.9c-1.5,2.5-3.2,4.8-4.8,7.3c-0.4-2.9-0.9-5.9-1.3-8.8c12.1-19.1,24.3-38.1,36.4-57.2
		c0.8-1.3,0.9-2.2-0.6-2.9c-1.3-0.6-2.2-1.8-3.6,0.4c-8.8,13.8-17.7,27.4-26.6,41.1c-3.7,5.6-7.4,11.2-11.1,16.9
		c-3.2,2-4,5.5-5.5,8.6c-0.3,0.1-0.6,0.1-0.8,0.3c-4.5,6.9-8.9,13.9-13.5,20.8c-6.6,9.7-13.4,19.1-20.2,28.7
		c-0.1-1.5-0.3-3.1-0.4-4.6c0.6-0.9,1.3-1.7,1.8-2.6c8.1-12.8,16-25.7,24.2-38.5c15.6-24.2,31.2-48.4,46.9-72.6
		c0.5-0.7,0.9-1.5,1.3-2.3c-4.5-3.5-4.6-3.5-7.9,0.6c-0.8,1-1.6,1.9-2.3,2.9c-14.4,18.6-28.9,37.3-43.3,56c-0.2-2.2-0.3-4.5-0.5-6.7
		c0.2-0.2,0.3-0.3,0.5-0.5c5.3-7,10.7-13.9,16-20.9c5.2-6.5,10.2-13.1,15.2-19.7c2.5-3.4,5.1-6.7,7.6-10.1c1.2-1.5,2.4-3,3.5-4.6
		c0.2-0.3,2.2-3.2,0.9-3.1c-1.1,0.1-2.4,0.6-3.2,1.4c-1.9,1.8-3.7,3.7-5.5,5.6c-0.9,0.9-1.9,1.8-2.9,2.7c-0.4,0.3-2.9,1.8-2.9,2.1
		c0,0,0.1,0.2,0.1,0.2c-0.6,0.1-1.3,0.1-1.8,0.4c-9.6,6.5-19.1,13-28.7,19.5c-1.3,0.9-2.8,1.5-4.1,2.2
		C335.8,267,330.3,256.9,321.1,249.2z M465.9,299.6C465.9,299.6,465.9,299.6,465.9,299.6c-5.3,11.1-10.7,22.2-16,33.3
		c-14.1,29.5-28.2,59-42.4,88.5c-4.6,9.7-9.7,19.1-14.5,28.7c-1.3,0.7-2.7,1.1-3.8,2c-1.8,1.4-1.4,3.3,0.8,4
		c0.8,0.3,1.8,0.5,2.7,0.4c4.9-0.5,9.9-0.8,14.8-1.6c8.3-1.3,15.8-4.6,22.8-9.1c6.9-4.4,13.4-9.4,18.1-16.3
		c3.8-5.5,6.4-11.4,8.6-17.7c3.4-9.9,5.6-20.1,7.1-30.5c0.9-6.8,1.6-13.6,2.3-20.4c0.3-3,0.5-5.9,0.5-8.9c0.2-6.3,0.3-12.5,0.3-18.8
		c0-5.7-0.4-11.4-0.3-17.1c0-2.6,0.8-5.3,1.3-7.9c1.6-8.1,2.1-16.4,5.5-24.3c-0.8,0.4-1.6,0.9-2,1.6c-2,4.4-3.9,8.9-5.9,13.4
		C465.9,299.2,465.9,299.4,465.9,299.6z M375.1,451.3c3,0.5,5.7,1,8.4,1.3c0.6,0.1,1.5-0.6,1.9-1.2c1.5-2.6,2.9-5.2,4.3-7.8
		c5.4-9.8,11.4-19.4,16.3-29.6c11.5-24,22.4-48.3,33.8-72.4c6-12.7,12.6-25.2,18.5-38c2.7-5.8,4.6-12,6.8-18c0.2-0.6-0.1-1.3-0.2-2
		c-0.6,0.4-1.2,0.7-1.7,1.2c-0.4,0.5-0.7,1.2-1,1.8c-7.9,15.2-15.5,30.6-23.7,45.7c-12.7,23.5-25.9,46.8-38.5,70.3
		c-7.9,14.8-15.2,29.9-22.8,44.8C376.5,448.6,375.9,449.8,375.1,451.3z"/>
	<path class="st1" d="M321.1,249.2c9.2,7.7,14.7,17.8,18.8,28.8c0.5,1.2,0.9,2.4,1.4,3.6c0.1,0.4,0.2,0.7,0.2,1.1
		c1.3,6.7,2.5,13.4,3.8,20.2c1.2,6.3,0.5,13.7-0.7,19.9c-0.8,4.6-2.4,9.1-5,12.9c-2.8,4.1-6.8,7.2-10.1,10.9c-2.3,2.6-4.2,5.7-5,9.1
		c-0.7,3.4,0,7,0.5,10.4c0.1,1.5,0.3,3.1,0.4,4.6c-0.1,6.4-0.1,12.8-0.2,19.2c-0.1,1.1-0.2,2.1-0.3,3.2c-1.8,6.9-3.7,13.8-5.5,20.8
		c-0.2,0.3-0.3,0.6-0.5,0.9c-0.2,0.3-0.3,0.6-0.5,0.9c-0.2,0.3-0.3,0.6-0.5,0.9c-0.2,0.3-0.3,0.6-0.5,0.9c-0.2,0.3-0.3,0.6-0.5,0.9
		c-0.3,0.5-0.6,0.9-0.9,1.4c-0.5,0.8-0.9,1.5-1.4,2.3c-0.5,0.5-0.9,1-1.4,1.5c-3.8,4.1-7.4,8.3-11.2,12.3c-1.6,1.7-3.2,3.7-5,5.3
		c-3.1,2.8-7.7,4.1-11.5,5.8c-1.4,0.6-2.8,1.2-4.3,1.5c-1.2,0.2-2.2,0.2-3.3,0.8c-2.6,1.5-5,3.5-7.5,5.1
		c-5.4,3.7-10.9,7.3-16.4,10.9c-6.6,4.3-13.1,8.9-20.1,12.3c-7.2,3.6-15,6.1-22.6,8.8c-12.2,4.3-24.6,7.1-37.7,5.6
		c-8.4-1-16.6-2.2-24.6-5.1c-6.5-2.4-12.8-5.7-17.2-11.2c-5-6.1-8.7-13.4-11.3-20.9c6.1,4.2,13.8,6.1,21,7.9
		c7.6,1.9,15.4,3.1,23.3,3.3c14.6,0.5,29.5-2.4,42.3-9.2c10.5-5.6,19.4-13.7,27.2-22.6c3.8-4.3,7.4-8.9,10.9-13.3
		c1.7-2.2,2-5.2,2.6-7.9c0.8-3.5,1.7-7,2.5-10.4c0.5-2.2,1.1-4.5,1.6-6.7c1.2-5.2,2.5-10.3,2.9-15.6c0.4-5.3-0.2-10.8-2.4-15.6
		c-2.9-6.2-8.6-11-15.1-12.9c-3.8-1.1-7.9-1.2-11.7-2.2c-3.8-1.1-7.7-3.5-8.8-7.3c-1.6-5.5,2.5-10.8,3.6-16
		c1.1-4.8,3.3-9.5,6.4-13.4c3.2-4,7.2-7.4,10.6-11.3c4.3-5.1,7.8-10.8,8.6-17.6c2.5-0.1,1.8-2.3,2.2-3.6
		c4.3-15.8,12.6-28.4,28.1-35.2c2.4-1.1,5-1.9,7.4-2.9c0.3-0.1,0.7-0.1,1-0.2c4.1-0.3,8.2-1,12.3-1C306.2,241,314.1,244,321.1,249.2
		z"/>
	<path class="st1" d="M336.3,479.8c4.1-1.2,8.2-2.4,12.3-3.5c16.8-4.4,34.2-6.3,51.5-7.4c21.1-1.4,47.9,4.8,61.5,22.4
		c6.3,8.2,7.1,18.6,3.5,28.1c-3.7,9.9-10.2,17.9-17.2,25.6c-15.2,16.4-33.8,27.7-54.1,36.6c-14,6.1-28,11.9-42,18.1
		c-10,4.4-19.7,10.2-26.3,18.9c-8,10.5-11,30.4-26.4,32.5c-9.7,1.3-16.2-6.5-16.7-15.6c-0.7-11.4,4.6-23.1,11.9-31.6
		c14-16.2,35.5-22.6,54.9-29.7c15.5-5.7,31.1-11.3,46.4-17.5c14.1-5.8,30.6-14.9,39.8-27.4c9.2-12.5,8.4-28.9-5.4-37.4
		c-17.3-10.7-40.1-6.6-58.3-0.9c-18,5.6-35.9,13.4-55,14.3c-1.8-0.6-3.6-1.2-5.3-1.9c-3.4-1.4-6.9-3-8-6.9c-1-3.7-1.6-7.6-2.3-11.4
		c7.8-0.7,15.8-0.9,23.5-2.4C328.6,482,332.5,480.9,336.3,479.8z"/>
	<path class="st1" d="M47.9,389.8c0.2-2.6,0.7-5.3,2-7.5c1.5-2.5,4-4.3,7-4.7c1-0.1,2.4,0.2,2.8-1c0.1-0.5,0-1-0.1-1.5
		c-1-5-2-10.3-2.1-15.4c-0.1-3.9,2.6-6.7,5.6-7.2c3-0.5,5.9,1.3,7.4,5c1.2,2.9,1.9,6,3.1,8.9c1.6,4.1,3.3,8.2,5,12.3
		c-0.1,0.4-0.3,0.9-0.2,1.2c0.7,2.2,1.2,4.4,2.1,6.5c3.1,7.3,6.1,14.7,9.4,21.9c3.6,8,7.5,15.9,11.4,23.8c2,4.2,4.3,8.3,6.5,12.4
		c-1.7,3-1.7,5.1,0.8,7.6c1.8,1.8,4,3.1,6.1,4.7c0.3,0.8,0.5,1.6,0.9,2.3c2.9,5,5.8,10.1,8.7,15.1c6.3,10.9,15.5,18.3,27.7,21.7
		c9.6,2.6,19.5,3.2,29.4,3.7c5.6,0.3,11.3,0,17,0.1c0.8,0,1.6,0.3,2.4,0.5c-7.3,2-14.5,4.2-21.9,5.8c-12.3,2.7-24.8,3.6-37.4,4.2
		c-17.3,0.9-32.3-5-45.4-15.7c-6.3-5.2-12-11.1-17.4-17.3c-5.5-6.3-10.4-13.1-15.1-20c-3.3-4.8-5.8-10.2-8.6-15.4
		c-1.4-2.5-2.7-5-3.9-7.5c-1.9-4-3.9-8-5.5-12.1c-1.7-4.1-1.7-8.5-0.1-12.6c1.8-4.6,2.8-9.5,2.7-14.4
		C47.8,393.5,47.8,391.6,47.9,389.8z"/>
	<path class="st0" d="M285.2,242c-0.3,0.1-0.7,0.1-1,0.2c-0.6-1-1.2-2.1-1.9-3.1c-1-1.5-2.1-1.8-3.9-0.8
		c-6.2,3.2-11.9,6.9-16.7,11.9c-4.7,4.9-9.2,10-13.1,15.6c-3.9,5.6-7,11.8-10.5,17.7c-5.7,0.6-10.9,1.8-16.6,2.4
		c-3.6-0.9-7.9-2.3-11.4-3.4c-4.3-1.4-8-3.9-10.7-7.6c-4.3-6-3.5-13.8,2-19.5c0.7-0.7,1.3-1.4,2.2-2.5c-1.1-0.4-1.7-0.7-2.4-0.9
		c-7.2-2-14.1-4.7-20.3-8.9c-3.7-2.5-6.8-5.6-7.6-10.2c-1.2-6.5,2.4-10.8,7.2-14.3c7.1-5.1,15.3-7.3,23.8-8.5
		c15.5-2.2,30.6-0.8,45.2,4.9c14,5.4,26,13.7,34.9,25.9C284.8,241.2,285,241.6,285.2,242z"/>
	<path class="st1" d="M221.1,285.6c3.6-0.6,7.2-1.1,10.9-1.5c3.3-0.3,6.5-1.1,9.8-1.6c-7.9,9-18.6,15.5-30.2,18.4
		c-7.9,1.9-16.2,2.3-23.6,5.6c-2.2,1-4.2,2.2-5.9,3.9c-1,1-1.8,2.2-2.3,3.5c-0.5,1.3-0.5,1.8,0.4,2.8c2,2.4,0.4,4.3-1.7,5.9
		c-7.4,5.6-13.3,13.3-16.7,21.9c-0.7,1.7-1.3,3.5-2.3,5.1c-1,1.6-2.3,3-4.1,3.6c-2.7,0.9-5.5-0.2-8.2-0.9c-0.5-0.1-1.1-0.3-1.6-0.4
		c-4.6-0.9-9.3-0.6-13.8,0.7c-1,0.3-2,0.5-2.8,1.1c-1,0.7-1.9,1.7-2.8,2.6c-1.9,1.8-3.9,3.5-5.8,5.3c-2.6,2.3-5.5,4.8-9,5
		c-0.8,0,0-2.9,0.1-3.2c0.5-1.1,0.9-2.3,1.4-3.5c1.1-2.5,2.3-4.8,3.6-7.2c2.7-4.6,5.8-9,9-13.2c9.3-12,19.6-23.1,32.1-31.9
		c16-11.3,33.7-17.9,53-20.5C214.1,286.7,217.6,286.1,221.1,285.6z"/>
	<path class="st2" d="M283.9,448c2.2-1.3,4.4-2.5,6.9-3.5c1.2-0.5,2.5-0.7,3.7-1c-0.6,0.9-1.4,1.7-1.6,2.6
		c-1.1,5.2-1.8,10.5-1.7,15.8c0.1,4.5,1.1,8.9,2.1,13.3c0.2,1,0.7,2.1,0.2,2.8c-0.3,0.4-1.9,1-2.3,1.2c-2,1.2-3.9,2.5-5.9,3.6
		c-7.8,4.5-16.1,8.2-24.7,11c-8.5,2.8-17.3,4.7-26.1,6.1c-4.4,0.7-8.9,1.3-13.3,1.8c-2.3,0.3-4.7,0.7-7,1c-1.8,0.2-5,1-6.5,0.2
		c0.1-0.4,0.3-0.5,0.7-0.7c16-9,30.3-20.5,44.9-31.6c5.7-4.6,11.6-9,17.5-13.3C275.2,454.1,279.3,450.8,283.9,448z"/>
	<path class="st1" d="M297,534.1c1-0.3,2.1-0.6,3.1-0.9c0.7-0.2,2.1-0.8,2.8-0.7c0.8,0.1,0.6,0.4,0.8,1.2c0.1,0.6,0.2,1.2,0.3,1.8
		c0.8,5.6,1.9,11.2,2.6,16.9c1.2,11,0.3,23.3-10,29.8c-1.5,1-3.1,1.8-4.8,2.5c-1.2,0.6-2.2,1.4-3.6,1.4c-3.8,0-7.7-0.7-11.5-1
		c-2.8-0.2-5.7-0.5-8.1-1.8c-2.9-1.5-4.9-4.4-6.4-7.3c-2.1-3.9-3.5-8.3-3.7-12.7c-0.2-4.5,1-9,3.7-12.6c3.1-4.1,7.8-6.5,12.5-8.5
		c3.3-1.5,6.7-2.9,10.2-4.1C288.8,536.7,292.8,535.3,297,534.1C296.9,534.1,296.9,534.1,297,534.1z"/>
	<path class="st3" d="M283.7,447.8c-10.2,7.7-20.6,15.1-30.6,23c-13.7,10.9-27.6,21.4-42.6,30.4c-0.8,0.5-1.8,0.9-2.7,1.3
		c0.1-1.4,0.2-2.9,0.4-4.4c-2.7,0.7-5.3,1.4-7.8,2.1c-0.8-0.2-1.6-0.5-2.4-0.5c-5.7,0-11.3,0.2-17-0.1c-9.9-0.5-19.8-1.1-29.4-3.7
		c-12.3-3.4-21.4-10.8-27.7-21.7c-2.9-5-5.8-10-8.7-15.1c-0.4-0.7-0.6-1.5-0.9-2.3c2.9,0.8,5.9,1.7,8.8,2.5c0.6,0.9,1.2,1.8,1.7,2.7
		c1.2,2.5,2.5,5.1,3.6,7.6c4.2,9.1,11.9,13.8,20.9,17.1c7.9,2.9,16.2,4.1,24.6,5.1c13.1,1.5,25.5-1.2,37.7-5.6
		c7.6-2.7,15.4-5.3,22.6-8.8c7-3.5,13.5-8,20.1-12.3c8.8-5.7,17.4-11.7,26.1-17.5C281.6,447.1,282.7,445.8,283.7,447.8z"/>
	<path class="st0" d="M207.3,503.4c17.2-1.2,34.1-3.7,50.8-8.4c11.7-3.3,22.3-8.6,32.2-15.6c1-0.7,2.4-0.9,3.5-1.3
		c0.8,1.1,1.7,2.2,2.3,3.5c0.5,1.2,0.6,2.7,0.9,4c-0.2,1.7-0.4,3.3-0.6,5c-1.4,1-2.7,2.1-4.2,2.8c-17.2,9.1-35.3,15-54.8,16.1
		c-9,0.5-18,1.4-27,2.1c-1.1,0.1-2.3,0.1-3.4,0.1c-2.2-0.1-3.9-0.9-4.5-3.1C202.9,505.6,205,504.3,207.3,503.4z"/>
	<path class="st1" d="M194.6,540.2c1.5,0.9,3,1.8,4.5,2.8c1.6,0.9,2.7,1.9,4,3.2c2.9,2.9,7,5.1,10.6,7c1.9,1.1,3.9,2.1,6,3
		c0.7,0.3,5.7,2.9,6.2,2.5c-7.3,5.6-14.2,11.7-21.9,16.7c-8.4,5.4-18.7,0.8-22.4-8c2.1-8.1,4.9-16,8.6-23.6
		C191.1,541.8,192.5,540.6,194.6,540.2z"/>
	<path class="st3" d="M107.6,444.6c-2.2-4.1-4.4-8.2-6.5-12.4c-3.9-7.9-7.7-15.8-11.4-23.8c-3.3-7.2-6.3-14.6-9.4-21.9
		c-0.9-2.1-1.5-4.3-2.1-6.5c-0.1-0.4,0.1-0.8,0.2-1.2c0.9,1.8,1.8,3.6,2.8,5.5c0.7-0.5,1.2-1,1.7-1.4c0.4,0.4,0.9,0.7,1.1,1.2
		c0.9,2.1,1.7,4.4,2.7,6.5c0.6,1.5,1.4,2.9,2.2,4.3c0.2,0.9,0.3,1.8,0.6,2.6c3.4,7.5,6.9,15,10.3,22.5c0.2,0.4,0.5,0.8,0.4,0.7
		c-0.1-9.1-0.1-18.6-0.2-28.2c0.1-0.6,0.3-1.3,0.4-1.9c0.3-2.5,0.5-5.1,0.8-7.7c0.4-3.6,0.9-7.2,1.4-10.8c1.5-0.4,3-0.7,4.6-1.1
		c0.4,2.9,0.9,5.9,3.4,7.8c1.4,1,1.9,2.2,1.7,3.8c-0.1,0.1-0.2,0.1-0.4,0.2c-1.1-0.4-2.2-0.8-3.6-1.3c-0.4,6.5-0.9,13-1.1,19.7
		c-0.1,4.7,0.1,9.4,0.4,14.2c0.2,3.4,0.6,6.8,1.1,10.2c1,6.1,2.6,12,5.3,17.6C112.1,443.1,109.7,443,107.6,444.6z"/>
	<path class="st3" d="M293.4,537.9c-2.5,1.4-4.9,3-7.5,4.1c-4,1.7-7.7,3.6-11.4,5.8c-2.9,1.7-6.5,3.2-8.6,6.1c-2.2,3-4.2,7-4.4,10.7
		c-0.1,1.9,0.2,3.8,0.8,5.6c2,6.9,6.6,13.5,14.4,14.2c2.1,0.2,4.2,0,6.3,0.1c2.2,0.1,4,1.1,6,1.8c-3.9,1.6-7.7,1.6-11.7,2.2
		c-3.5,0.5-7.2-1-9.9-3.2c-3.2-2.8-5.4-6.6-7.5-10.3c-2.3-4.1-3.9-8.6-5.2-13.1c-0.3-0.9-3.4-11.1-3.5-11.1c7.3-2,14.5-4.1,21.8-6.1
		c3.6-1,7.3-2,10.9-3C287,540.7,290.2,539.1,293.4,537.9z"/>
	<path class="st1" d="M102.9,372.2c-0.5,3.6-1,7.2-1.4,10.8c-0.3,2.5-0.5,5.1-0.8,7.7c-0.1,0.7-0.3,1.3-0.4,1.9c-4.3-2-8-1-11.2,2.3
		c-0.7-1.4-1.5-2.8-2.2-4.3c-0.9-2.1-1.7-4.3-2.7-6.5c-0.2-0.5-0.7-0.8-1.1-1.2C88.6,377.2,95.1,373.5,102.9,372.2z"/>
	<path class="st3" d="M194.6,540.2c-2.1,0.4-3.5,1.6-4.4,3.5c-3.6,7.6-6.4,15.5-8.6,23.6c-2.1-3.2-2.7-6.8-1.5-10.3
		c2.1-6.4,4.7-12.6,7.1-18.8c0.3-0.7,0.6-1.4,0.9-2.1C190.2,537.5,192.4,538.8,194.6,540.2z"/>
	<path class="st3" d="M296.5,490.5c0.2-1.7,0.4-3.3,0.6-5c1.4-0.1,2.7-0.2,4.1-0.4c0.7,3.8,1.3,7.7,2.3,11.4c1.1,3.9,4.6,5.5,8,6.9
		c1.7,0.7,3.6,1.3,5.3,1.9c-5.4,0.1-10.7,0.2-16.1,0.3c-1.1-3.5-2.1-6.9-3.1-10.4C297.2,493.6,296.9,492,296.5,490.5z"/>
	<path class="st3" d="M225.8,558.7c-8.1-2.8-15.4-7-22.4-11.9c-0.7-0.5-1.1-1.3-1.6-2c0.4,0.1,0.8,0.1,1.1,0.3
		c8.9,4.9,18.5,7.7,28.6,9C229.6,555.6,227.7,557.1,225.8,558.7z"/>
	<path class="st3" d="M48.1,389.9c0.2-0.4,0.5-0.7,0.9-0.7c0.9,0.1,0.7,1.7,0.9,2.3c0.5,2.4,1.3,4.7,2.2,6.9
		c1.9,4.4,4.3,8.6,6.8,12.7c0.8,1.3,2.1,3.1,2.1,4.8c0,0.6-0.3,1.3-0.8,1.6c-1.9,1-4.3-4.4-5-5.6c-1.6-2.5-3.1-5.1-4.2-7.9
		c-1.6-4.2-2.1-8.8-3.1-13.2C47.9,390.5,48,390.2,48.1,389.9z"/>
	<path class="st3" d="M58.9,371.9c0.5,0.6,1,1.1,1.4,1.7c1.8,3.2,3.6,6.5,5.3,9.7c0.7,1.3,4.5,6.5,2.3,8c-2.6,1.8-7.3-11.9-7.7-13.7
		C59.8,375.7,59.4,373.8,58.9,371.9z"/>
	<path class="st1" d="M401.8,351.1c2.5,3,3.2,6.6,3.4,10.4c0,1.8-0.4,3.8,0.2,5.4c1.6,4.5,1.7,8.9,0.6,13.5c-1.2,2-2.4,4.1-3.6,6.1
		c-2.9,4.3-5.9,8.5-8.7,12.9c-4.8,7.8-9.1,15.9-14.2,23.5c-5.7,8.4-13.5,14.7-21.3,21c-7.9,4.7-15.7,9.5-23.6,14.1
		c-3.3,1.9-6.9,3.3-10.4,4.9c-4.5,1.5-9,3.1-13.6,4.6c-5.1,0.6-10.3,1.3-15.4,1.9c0-9.5-1-19.2,5.1-27.7c0.8-0.4,1.6-0.8,2.4-1.3
		c4.2-2.5,8.5-5,12.7-7.5c2.4-2.2,4.8-4.4,7.2-6.6c1.5-2,3.3-3.9,4.6-6c3.2-5.7,6.4-11.3,9.2-17.2c6.6-13.6,12-27.7,14.8-42.6
		c0.4-1.6,0.9-3.2,1.2-4.8c0.9-4.3,1.6-8.6,2.4-12.9l0,0c0.1-0.4,0.3-0.8,0.4-1.1c0.2-0.9,0.3-1.7,0.5-2.6
		c1.4-6.1,2.8-12.3,4.1-18.4c1.5-3.1,2.3-6.6,5.5-8.6c2.3-0.9,4.1-0.1,5.5,1.8c0.4,2.9,0.9,5.9,1.3,8.8c0,1-0.1,2.1-0.1,3.1
		c-0.2,3.6-0.4,7.2-0.6,11.6c4.8-5.3,9.7-5.9,15-2.3c0.2,0.2,0.4,0.4,0.6,0.6c1.7,2.1,3.5,4.2,5.2,6.3c1.2,1.7,2.2,3.5,3.6,4.9
		C397.8,348.6,399.9,349.8,401.8,351.1z"/>
	<path class="st4" d="M393,450.1c-0.4,0.8-0.7,1.5-1.3,2.7c2.3-0.1,4.4-0.2,6.4-0.4c11.2-0.8,21.4-4.4,30.8-10.5
		c9.1-6,14.6-14.8,18.5-24.6c5.3-13.1,9.5-26.6,11.3-40.6c1.2-9.2,2-18.4,2.6-27.6c1-15.9,1.6-31.8,4.5-47.5c0.1-0.7,0-1.4,0-2
		c0,0,0,0,0,0c0-0.2,0-0.4,0-0.6c2-4.5,3.9-8.9,5.9-13.4c0.3-0.7,1.2-1.2,2-1.6c-3.4,7.8-4,16.2-5.5,24.3c-0.5,2.6-1.2,5.2-1.3,7.9
		c-0.1,5.7,0.3,11.4,0.3,17.1c0,6.3-0.1,12.5-0.3,18.8c-0.1,3-0.2,6-0.5,8.9c-0.7,6.8-1.4,13.6-2.3,20.4
		c-1.5,10.4-3.7,20.6-7.1,30.5c-2.2,6.2-4.8,12.2-8.6,17.7c-4.7,6.9-11.2,11.8-18.1,16.3c-7,4.5-14.6,7.8-22.8,9.1
		c-4.9,0.8-9.8,1.1-14.8,1.6c-0.9,0.1-1.8-0.1-2.7-0.4c-2.2-0.7-2.6-2.6-0.8-4C390.3,451.2,391.7,450.7,393,450.1z"/>
	<path class="st2" d="M188.3,535.9c-1.2-1-2.3-2.1-3.4-3.2c-2-2-2-4-0.1-6c5.3-5.6,10.6-11.2,15.9-16.8c0.6-0.6,1.3-1,2-1.5
		c0.6,2.3,2.3,3.1,4.5,3.1c1.1,0,2.3,0,3.4-0.1c9-0.7,18-1.6,27-2.1c19.5-1.1,37.7-7,54.8-16.1c1.5-0.8,2.8-1.9,4.2-2.8
		c-0.6,0.4,2.6,9.5,3,10.6c1.2,3.7,2.5,7.4,3.9,11c1.4,3.6,3.1,7.1,4.5,10.7c1.1,2.8,1.3,5.1-1.2,7.2c-6.5,5.5-13.5,8.2-21.4,11.3
		c-8.5,3.3-16.8,7-25.6,9.5c-9.3,2.7-18.6,2.9-28.2,3.3c-4,0.2-8.9-1.5-12.7-2.5c-3.9-1.1-7.6-2.5-11.3-4.2
		C200.8,544.3,193.9,540.6,188.3,535.9z"/>
	<path class="st4" d="M329.7,476.8c-5.5-2.4-10.9-4.8-16.3-7.3c-1-0.5-1.8-1.3-2.7-2c4.5-1.5,9-3.1,13.6-4.6
		c1.3,2.8,2.6,5.6,3.8,8.5C328.7,473.2,329.2,475,329.7,476.8z"/>
	<path class="st4" d="M341.3,281.6c-0.5-1.2-0.9-2.4-1.4-3.6c1.4-0.7,2.9-1.3,4.1-2.2c9.6-6.5,19.1-13,28.7-19.5
		c0.5-0.3,1.2-0.3,1.8-0.4c-2.4,2.1-4.8,4.4-7.4,6.3C358.6,268.7,350,275.1,341.3,281.6z"/>
	<path class="st4" d="M375.9,254.6c-0.5,0.3-1,0.7-1.4,1C374.9,255.3,375.4,254.9,375.9,254.6z"/>
	<path class="st4" d="M376.8,254c-0.3,0.2-0.7,0.4-1,0.7C376.1,254.5,376.5,254.2,376.8,254z"/>
	<path class="st5" d="M268,287.3c-0.7-1.2-0.5-2.7-0.2-4.2c0.7-3.7,1.5-7.4,2.9-11c3.4-8.4,11.4-14.3,20.2-16c4-0.8,8.2-0.6,12,1
		c4.9,2.1,8.4,6.3,11.2,10.6c3.2,5,6,10.3,8,15.9c1.8,5.2,3,10.8,3.1,16.3c0.2,9.1-2.9,18.4-6.5,26.6c-0.7,1.5-2.1,2.7-3.2,4
		c-6-6-12-12.1-18-18c-3.1-3.1-6.6-5.8-9.6-8.9c-2.9-3-6-5.9-9.2-8.6c-1.7-1.4-3.5-2.8-5.3-4c-1.5-1-3.4-1.7-4.7-3
		C268.3,287.8,268.1,287.5,268,287.3z"/>
	<path class="st3" d="M267.9,287.5c2.4,1.4,4.7,3.1,6.9,4.7c6.1,4.6,11.6,9.8,17.1,15.2c7.9,7.7,15.8,15.4,23.6,23.2
		c3.6,3.9,7.2,7.9,10.9,11.7c0.5,0.5,2.1,0.3,2.8-0.2c9-5.9,14.2-14.2,15.3-25c0.2-1.5,0.2-3,0.5-4.5c0.1-0.5,0.5-1,0.7-1.5
		c1.5,17.8-5.7,31.9-18.9,43.4c-1.7,1.5-3.2,2.8-2.5,5.3c-1.5-1.8-3.2-3.5-4.4-5.5c-4.1-6.8-7.6-14-12-20.6
		c-7.9-12-17.8-22.3-28.5-31.9c-5.7-5.1-11.8-9.5-18.7-12.8c-2.8-1.3-5.9-1.9-8.9-2.9c-0.4-0.1-1.8-0.4-1.7-1.1
		c0.1-0.3,0.7-0.4,1-0.5c0.9-0.4,2-0.6,3-0.6C259.2,283.5,263.7,285.1,267.9,287.5z"/>
	<path class="st0" d="M355,342.8c-0.8,4.3-1.6,8.6-2.4,12.9c-0.3,1.6-0.8,3.2-1.2,4.8c-0.3,0.4-0.7,0.8-1,1.2
		c-9.1,15.6-18.3,31.2-27.4,46.9c-1,1.7-2.2,3.4-3.3,5.1l0,0c1.8-6.9,3.7-13.8,5.5-20.8c8-13.4,16-26.8,24-40.2
		C351.1,349.5,353.1,346.2,355,342.8z"/>
	<path class="st4" d="M238.8,283.7c-0.2-0.1-0.4-0.2-0.6-0.3c3.5-5.9,6.5-12.1,10.5-17.7c3.9-5.5,8.4-10.6,13.1-15.6
		c4.8-5,10.5-8.8,16.7-11.9c1.8-0.9,3.9-1,4.9,0.4c0.7,1,1.3,2.1,1.9,3.1c-2.5,1-6,2.2-8.4,3.3c-15.5,6.8-23.8,19.4-28.1,35.2
		c-0.4,1.3,0.3,3.5-2.2,3.6c-0.4,0-0.8-0.1-1.2-0.1c-0.7-0.9-1.2-2.4-2-2.5c-1-0.2-2.2,0.7-3.2,1.3
		C239.6,282.8,239.2,283.3,238.8,283.7z"/>
	<path class="st3" d="M245.3,283.8c0.4,0,0.8,0.1,1.2,0.1c-0.9,6.8-4.3,12.5-8.6,17.6c-3.3,3.9-7.4,7.3-10.6,11.3
		c-2.2,2.7-3.5,6-5.2,9.1c-0.3-0.1-0.6-0.1-0.9-0.2c-0.8-1.2-0.9-2.2,0.1-3.4c0.7-0.9,1-2.2,1.5-3.3c1.1-2.5,1.9-5.3,3.5-7.4
		c3.6-4.6,7.7-8.8,11.4-13.4C240.4,290.9,242.8,287.3,245.3,283.8z"/>
	<path class="st4" d="M315.5,433c-4.2,2.5-8.5,5-12.7,7.5c-0.8,0.5-1.6,0.9-2.4,1.3c-1.8,0.6-3.6,1.2-5.3,1.8
		c0.1-0.2,0.1-0.3,0.2-0.5c0.8-0.8,1.6-1.5,2.3-2.3c5.4-5.8,10.7-11.6,16.1-17.4c0.5-0.5,0.9-1,1.4-1.5c1.4,0.8,2.1,1.8,1.6,3.7
		C315.9,428,315.8,430.5,315.5,433z"/>
	<path class="st3" d="M295,443.6c1.8-0.6,3.6-1.2,5.3-1.8c-6.1,8.4-5,18.1-5.1,27.7c-1.1,0.1-2.1,0.1-3.2,0.2
		c-0.4-3.9-1.3-7.8-1.2-11.7c0.1-3.9,1.2-7.8,2-11.6c0.2-1,1.1-1.8,1.6-2.6C294.7,443.6,294.8,443.6,295,443.6z"/>
	<path class="st0" d="M315.5,433c0.3-2.4,0.5-4.9,1.1-7.3c0.5-1.9-0.1-2.9-1.6-3.7c0.5-0.8,0.9-1.5,1.4-2.3c0,0,0,0,0,0
		c0.2,0.9,0,2.1,0.5,2.5c1.8,1.5,3.8,2.8,5.8,4.2C320.3,428.6,317.9,430.8,315.5,433z"/>
	<path class="st0" d="M316.4,419.7c0.3-0.5,0.6-0.9,0.9-1.4c0,0,0,0,0,0C317,418.8,316.7,419.2,316.4,419.7L316.4,419.7z"/>
	<path class="st0" d="M317.8,417.4c0.2-0.3,0.3-0.6,0.5-0.9c0,0,0,0,0,0C318.1,416.8,317.9,417.1,317.8,417.4L317.8,417.4z"/>
	<path class="st0" d="M319.2,414.6c0.2-0.3,0.3-0.6,0.5-0.9c0,0,0,0,0,0C319.5,414,319.3,414.3,319.2,414.6L319.2,414.6z"/>
	<path class="st0" d="M318.2,416.5c0.2-0.3,0.3-0.6,0.5-0.9c0,0,0,0,0,0C318.6,415.9,318.4,416.2,318.2,416.5
		C318.2,416.5,318.2,416.5,318.2,416.5z"/>
	<path class="st0" d="M318.7,415.5c0.2-0.3,0.3-0.6,0.5-0.9c0,0,0,0,0,0C319,414.9,318.9,415.3,318.7,415.5
		C318.7,415.6,318.7,415.5,318.7,415.5z"/>
	<path class="st0" d="M317.3,418.3c0.2-0.3,0.3-0.6,0.5-0.9c0,0,0,0,0,0C317.6,417.7,317.5,418,317.3,418.3L317.3,418.3z"/>
	<path class="st3" d="M78.6,390.4c0,0.1,0.1,0.3,0,0.6c-0.1,1.6-1.6,3.2-2.3,4.5c-1,2.1-2.1,4.1-3.1,6.2c-1.3,2.7-2.2,5.6-2.1,8.7
		c0,2,0.1,4.8,1.5,6.3c2.2,2.6,4.6-1.3,5.6-3.1c1.3-2.2,2.6-4.4,3.8-6.6c0.9-1.6,1.6-3.8,3.9-2.9c2.4,1,1.2,3.2,0.6,4.8
		c-1.9,4.8-4.2,9.4-8.7,12.4c-3.9,2.7-7.9,1.4-9.6-3.1c-3-8-1.2-15.2,3.7-21.8c1.3-1.8,2.8-3.6,4.4-5.3
		C77,390.6,78.3,389.6,78.6,390.4z"/>
	<path class="st3" d="M47.1,409.1c2.7,5.1,6.5,9.4,9.1,14.5c0.3,0.6,1.6,2.7,1,3.3c-0.7,0.7-2.7-1.7-3.1-2.2c-2-2.1-3.6-4.4-5-6.9
		C47.9,415.5,46,411.8,47.1,409.1z"/>
	<path class="st3" d="M201.9,544.8c-0.6-0.4-1.3-0.9-1.9-1.3C200.6,543.9,201.3,544.4,201.9,544.8z"/>
	<path class="st3" d="M294.8,537.4c-0.5,0.2-0.9,0.4-1.4,0.5C293.8,537.7,294.3,537.6,294.8,537.4z"/>
	<path class="st3" d="M296.6,536.5c-0.3,0.2-0.7,0.3-1,0.5C296,536.8,296.3,536.6,296.6,536.5z"/>
	<path class="st3" d="M295.7,536.9c-0.3,0.2-0.7,0.3-1,0.5C295,537.3,295.4,537.1,295.7,536.9z"/>
	<path class="st3" d="M200,543.5c-0.3-0.2-0.6-0.3-0.9-0.5C199.4,543.1,199.7,543.3,200,543.5z"/>
	<path class="st3" d="M297.5,536c-0.3,0.2-0.6,0.4-1,0.5C296.9,536.3,297.2,536.2,297.5,536z"/>
	<path class="st1" d="M131.2,405.7c2.9,5.6,4.2,11.8,5.2,18c1.4,8.3,2.2,16.7,2.6,25.1c0.2,3.7,0.1,7.7-2.3,10.6
		c-2.4,2.9-6.8,3.5-10.3,2.2s-6.2-4.3-8-7.6c-1.2-2.3-2-4.8-2.7-7.2c-0.7-2.4-1.6-4-2.6-6.3c-2-4.7-3.2-9.7-4-14.7
		c-0.5-3.4-0.9-6.8-1.1-10.2c-0.3-4.7-0.6-9.4-0.4-14.2c0.2-6.6,0.7-13.2,1.1-19.7c0.8,0.3,2,0.5,2.7,1c0.8,0.5,0.6,0.8,1.3,1.4
		c1.4,1.3,3.2,2,4.5,3.4c1.6,1.7,3.1,3.6,4.7,5.4C125.3,396.8,128.8,400.9,131.2,405.7z"/>
	<path class="st5" d="M89,394.8c3.2-3.3,6.9-4.3,11.2-2.3c0.1,9.5,0.1,19.1,0.2,28.2c0.1,0.1-0.2-0.2-0.4-0.7
		c-3.5-7.5-6.9-15-10.3-22.5C89.3,396.7,89.2,395.7,89,394.8z"/>
	<path class="st3" d="M353.9,358.3c0.9-1.1,1.7-2.4,2.8-3.3c5-4,10.7-6.5,17.1-7c2.9-0.2,5.8,0.4,8.2,2.3c3.1,2.5,3.4,7.7,0.7,12
		c-5.6,8.9-14,14.1-23.8,17.2c-1.3,0.4-2.8,0.4-4.1,0.1c-0.8-0.1-1.9-1.1-2-1.7c-0.1-0.8,0.6-2.1,1.3-2.5c2.2-1.1,4.6-1.7,6.8-2.7
		c6.6-3.1,12.8-6.7,16.7-13.1c0.8-1.3,1.5-3.5,0.9-4.6c-0.6-1.1-2.9-2.1-4.3-1.9c-3.7,0.4-7.4,1.2-10.9,2.2c-3,0.9-5.9,2.4-8.8,3.6
		C354.3,358.7,354.1,358.5,353.9,358.3z"/>
	<path class="st3" d="M402.6,358.5c1.7,1,1.3,2.5,1.1,4c-0.8,4.2-2.9,7.8-6,10.6c-1.5,1.4-6.2,5.1-8.4,4.8c-1.1-0.2-2.3-1.6-2.1-2.7
		c0.2-1.3,1.4-1.5,2.4-2c2-1.1,3.8-2.3,5.5-3.9C395.9,368.5,403.5,359,402.6,358.5z"/>
	<path class="st3" d="M391.3,342.7c0.5,0.7,1.2,1.3,1.4,2c1.5,8-0.5,15.1-5.8,21.3c-2.8,3.3-3.5-1.4-2.2-3.5c1.2-2,2.3-4,3.1-6.2
		c0.9-2.1,1.5-4.3,2-6.6c0.2-0.8,0.5-6.4,0.9-6.6C390.8,343,391.1,342.9,391.3,342.7z"/>
	<path class="st0" d="M355,342.9c0.1-0.4,0.3-0.8,0.4-1.1C355.3,342.1,355.2,342.5,355,342.9z"/>
	<path class="st5" d="M112.3,382.7c0.1-0.4,0.2-0.8,0.3-1.2c1.4-3.9,3.9-7.2,6.6-10.3c3.1-3.6,6.4-6.9,8.8-11c1.8-3,3.4-8.3,6.8-9.8
		c4.5-2,8.7-2.4,13.3-0.5c1.4,0.6,4.3,3.2,5.9,2.5c0.7-0.3,1.2-1,1.6-1.6c1.5-2.4,2.4-5.1,3.5-7.6c2-4.8,4.7-9.3,7.8-13.4
		c1.7-2.2,3.5-4.3,5.5-6.2c1.9-1.9,4.3-3.4,6-5.4c1.8-2,4.4-3.5,6.8-4.7c2.6-1.4,5.3-2.5,8.2-3.2c5.5-1.4,11.4-1.3,16.7,0.7
		c3.7,1.3,7,3.6,9.5,6.5c1.1,1.3,2.5,2.8,2.6,4.5c0.2,2,1.1,4,1.1,6.1c0.1,3.9-0.1,7.8-0.6,11.6c-0.3,2.1,0.5,2.2,2,2.1
		c5.1-0.6,10.1-1.7,14.8-3.7c6.6-2.7,13.8-4,20.2,0.1c5.5,3.5,9.3,9.4,11.9,15.3c3.4,7.8,4.6,16.7,3.9,25.2
		c-1.8,22.7-14.5,44.3-29.3,61.1c-15.1,17.2-34.4,30.2-56.8,35.6c-4.3,1-8.7,1.8-13.1,2.2c-7.7,0.8-15.5,0.9-23.1-0.6
		c-5.9-1.2-11.6-3.4-16.8-6.4c-2.7-1.5-5.2-3.3-7.5-5.3c-0.6-0.5-6-6-5.9-6c2.5-0.9,3.9-2.7,3.9-5.4c0-5-1-9.7-3.1-14.2
		c-0.9-1.9-1.6-3.8-2.3-5.7c2.2,0,4.5-0.1,6.7-0.1c2.6,0,5.3,0,7.4,1.5c1.3,0.9,2.3,2.4,3.9,2.9c0.1-3.4-1.8-6.8-4.8-8.4
		c-3.3-1.8-7.3-1.4-10.8-2.6c-2-0.7-3.7-1.9-5.1-3.4c-0.2-0.2-0.4-0.5-0.4-0.8c0-0.2,0.1-0.5,0.2-0.7c0.9-2.3,1.8-4.6,2.7-6.9
		c0.8-2,1.7-4,1.5-6.2c-0.2-1.8-1.6-2.8-3.1-3.8c-4-2.7-6.7-6.4-7.2-11.2c-0.3-2.3-0.3-4.6-0.3-6.9
		C112.3,385.9,112,384.3,112.3,382.7z M168.5,381c-7.7,1-13.3,4.3-16.8,10.6c-1.2,2.2-1.3,4.6,0.4,6.7c1.6,2,3.8,2.3,6,1.7
		c5.8-1.4,10.8-4.1,15.3-8c0.8-0.7,1.4-1.6,1.9-2.6c1.3-2.6,0.5-5.3-2-6.7C171.5,381.9,169.8,381.5,168.5,381z"/>
	<path class="st1" d="M164.9,412.5c0.2,4.5-2.9,7.5-9.2,9.3c-1.6,2.8,0,4.7,2.5,5.7c7.1,3,16.6-2.5,21.9-7
		c5.7-4.8,9.1-11.5,10.3-18.8c0-0.3,0.2-0.6,0.2-0.9c0.2-2,1-3.6,3.2-3.4c2.3,0.2,2.5,2.1,2.4,4c-0.1,7.4-3.2,13.8-6.9,19.9
		c-4.7,7.8-10.6,14-19.6,16.7c-2.5,0.7-1.6,2.9-1.5,4.5c0.1,1.9,1.6,2.9,3.4,2.4c1.4-0.4,2.8-1.1,4.1-1.8c2.2-1.2,4.2-2.8,6.5-3.9
		c0.9-0.5,2.3-0.3,3.3,0c0.4,0.1-0.5,2.9-0.7,3.1c-2.9,2.8-5.7,5.9-9.1,7.9c-3,1.7-6.8,1.8-9.6-0.3c-3.5-2.7-3.3-6.6-3-10.5
		c-2.3-0.6-4.6-0.9-6.6-1.8c-4.8-2-8.5-5.2-9.7-10.5c-1.2-5.7,1.6-9.9,7.3-10.7c3.4-0.5,6.6-1.2,9.3-3.4
		C163.8,412.7,164.3,412.7,164.9,412.5z"/>
	<path class="st6" d="M168.5,381c1.6,0.2,3.2,1,4.7,1.7c2.6,1.4,3.4,4,2,6.7c-0.5,0.9-1.1,1.9-1.9,2.6c-4.4,3.9-9.5,6.7-15.3,8
		c-2.3,0.6-4.5,0.2-6-1.7c-1.7-2.1-1.6-4.5-0.4-6.7c2.1-3.8,5.5-6.8,9.4-8.7c1.9-0.9,4-1.6,6.1-1.9C167.6,381,168,381,168.5,381z"/>
	<path class="st7" d="M204.9,369.6c0-2.4,1.3-5.3,2.1-6.6c2.1-3.4,5.7-5.7,9.6-6.6c2.1-0.5,4.3-0.7,6.4-0.4c3.7,0.6,5.2,4.4,1.5,6.5
		c-1.3,0.7-2.9,0.7-4.4,1.1c-2.8,0.7-5.7,1.7-7.5,4c-1,1.3-1,3-1.9,4.2c-0.8,1.1-3,1.6-4.1,1.1C205.3,372.2,204.9,371,204.9,369.6z"
		/>
	<path class="st7" d="M122,416.5c0.2-2.8,3.5-5,5.7-6.3c3-1.8,6.4-2.6,9.8-2.4c1.9,0.1,3.9,0.8,5.7,1.5c1.4,0.6,1.9,3.1,0.4,3.9
		c-2,1.1-4.8,0.8-7,0.8c-3.1,0.1-5.4,1.9-7.6,3.8c-1.1,1-2.7,2.6-4.4,2.4c-1.3-0.2-2.4-1.7-2.6-2.9C122,417,122,416.8,122,416.5z"/>
	<path class="st6" d="M180.3,371.6c-1,0-2-0.2-2.8-0.6c-0.7-0.4-1.4-1.7-0.8-2.4c0.5-0.6,2.1-0.5,2.9-0.7c1.9-0.5,3.7-1.2,5.4-2.3
		c3.3-2,5.8-5.1,7.8-8.3c0.4-0.7,1.1-1.3,1.8-1.6c1.2-0.5,2.1,0,2.3,1.3c0.1,0.5,0,1.1-0.1,1.6c-1,4-4.3,7.4-7.5,9.7
		c-1.8,1.2-3.7,2.3-5.7,2.9C182.5,371.4,181.4,371.6,180.3,371.6z"/>
	<path class="st6" d="M130.3,397.7c-0.4,0-0.7-0.1-1.1-0.2c-0.9-0.2-2.6-0.4-3.2-1.1c-0.9-1,0.2-2.1,1.2-2.4c2-0.7,4.1-0.9,6.2-1.5
		c4-1.4,7.8-3.4,11-6.2c1-0.9,2.4-0.8,2.6,0.7c0.2,1.4-1.4,3.1-2.2,4.1c-2.2,2.8-5.3,4.9-8.7,6C134.2,397.6,132.2,397.8,130.3,397.7
		z"/>
	<path class="st5" d="M115.1,443.4c-0.3-4.6-0.9-9.1,0.7-13.6c2.1,5.4,4.2,10.7,6.4,16.5C119.5,445.2,117.3,444.3,115.1,443.4z"/>
	<path class="st0" d="M118.3,423.3c0.3,0.2,0.5,0.4,0.6,0.5c1.2,1,2.3,2.2,3.8,2.9c2.1,1,4.4,1.4,6.7,1.7c2.6,0.3,5.1,1.1,7.1,2.9
		c1.6,1.4,3.7,4.8,3,7c-0.8-0.4-1.7-0.9-2.3-1.6c-1.5-1.7-3.5-2.5-5.7-2.7c-1.6-0.2-3.3,0-4.9,0c-0.5,0-4.9,0.3-5.1,0
		c2.7,6.5,5.5,12.8,5.5,20c0,2.1-1.3,4.7-3.5,5.2c-1.3,0.3-3.3-0.6-4.5-0.9c-1.6-0.4-3.2-0.9-4.8-1.6c-2.6-1.2-5.3-3.2-7.2-5.2
		c-1-1-1.7-2.3-1.7-3.7c0-1.9,1.3-3.6,3-4.4s3.7-0.8,5.5-0.4c1.8,0.4,3.3,1.3,5,2c0.8,0.3,2.9,0.4,3.3,1.4
		c-2.2-5.7-4.3-11.1-6.4-16.5c-0.5-1.5-3.3-7.1-0.3-7.6C116.5,422,117.6,422.7,118.3,423.3z"/>
	<path class="st7" d="M112.7,382.5c-1.8-0.7-2.8-3.1-3.6-4.7c-1.1-2.1-1.9-4.6-1.6-7c0.2-1.4,0.3-2.8,0.9-4.1c0.2-0.4,2.4-3.3,3-2.8
		c1.2,1,2.3,1,3.6-0.2c1.4-1.3,2.9-2.5,4.4-3.8c1.3-1.1,2.5-2.1,3.6-3.3c1.2-1.3,2.4-2.5,3.9-3.4c1.4-0.8,2.9-1.4,4.4-1.7
		c2.6-0.5,4.4,1.2,5.1,3.6c1.5,4.8-1.4,12.8-5.9,15.6c-3.2,2-6.7,3.5-10.2,5.2c1,3.3,0.3,5.2-3,6.4c-1.3,0.5-3,0.6-4.3,0.2
		C112.9,382.6,112.8,382.6,112.7,382.5z"/>
	<path class="st7" d="M245.3,283.8c-2.5,3.5-4.9,7.1-7.6,10.5c-3.7,4.6-7.9,8.7-11.4,13.4c-2.8,3.6-2.9,8.2-4.4,12.3
		c-1.2,3.3-3.5,6.3-7.5,5.9c-3.9-0.4-5.6-2.6-6.9-8.7c-0.5,0.2-1,0.3-1.4,0.5c-6.7,3.3-13.8,4.3-21.1,3c-3.6-0.7-8.1-2.9-9.6-6.5
		c-1-2.4-0.7-4.4,1.1-6.4c3.3-3.7,7.6-5.1,12.3-5.8c10.8-1.6,21.6-2.9,31.9-6.5c3.7-1.3,7.3-2.8,10.6-4.9c1.7-1.1,3.2-2.2,4.7-3.6
		c1.3-1.2,2.4-3.4,4-4.3c1-0.5,2.3-1.4,3.2-1.3C244.1,281.4,244.6,282.9,245.3,283.8z"/>
</g>
</svg>
